Coordinates
version=1
nRows=18
nColumns=22
inDegrees=yes

Units are S.I. units (second, meters, Newtons, ...)
If the header above contains a line with 'inDegrees', this indicates whether rotational values are in degrees (yes) or radians (no).

endheader
time	pelvis_tilt	pelvis_list	pelvis_rotation	pelvis_tx	pelvis_ty	pelvis_tz	hip_flexion_r	hip_adduction_r	hip_rotation_r	knee_angle_r	ankle_angle_r	subtalar_angle_r	hip_flexion_l	hip_adduction_l	hip_rotation_l	knee_angle_l	ankle_angle_l	subtalar_angle_l	lumbar_extension	lumbar_bending	lumbar_rotation
      1.26000000	     -3.23853817	     -3.70505501	     -7.99690452	     -1.22056285	      0.92794155	     -0.06066882	     -0.23223006	     -0.09224773	      1.89354748	     -6.23512738	      4.92594940	      2.56843545	      0.70823451	     -8.98398234	    -13.69011549	    -12.63290130	     11.17355731	      3.94218028	     -4.20003070	     -0.07510766	      1.17298328
      1.27000000	     -3.35723345	     -3.67614105	     -7.86828392	     -1.22040239	      0.92775680	     -0.06139746	     -0.10564439	     -0.14768148	      1.76557816	     -6.26680757	      4.95487975	      2.61443186	      1.18897733	     -8.97880488	    -13.46000273	    -13.24424200	     11.28455816	      3.66864831	     -4.15067996	     -0.10572015	      1.13012314
      1.28000000	     -3.48438196	     -3.65468733	     -7.72462933	     -1.22023359	      0.92754723	     -0.06225326	      0.03602243	     -0.20040983	      1.61784853	     -6.31538235	      4.99114583	      2.66283846	      1.71855155	     -8.97725758	    -13.20809922	    -13.92414039	     11.41194965	      3.37148594	     -4.09924638	     -0.11835900	      1.08816927
      1.29000000	     -3.64300996	     -3.62171009	     -7.58438713	     -1.22006884	      0.92727712	     -0.06321516	      0.23214859	     -0.26812725	      1.49341284	     -6.40126948	      5.02904194	      2.71763243	      2.31645722	     -8.96042456	    -12.94859225	    -14.66397809	     11.53206834	      3.01671081	     -4.01476776	     -0.13390296	      1.05488275
      1.30000000	     -3.72801967	     -3.63863903	     -7.39840702	     -1.21978637	      0.92706237	     -0.06435583	      0.31642245	     -0.30236607	      1.27490416	     -6.45418491	      5.10608452	      2.76554612	      2.85330494	     -8.97843707	    -12.67598771	    -15.44317165	     11.72083348	      2.76139711	     -4.01983207	     -0.08928558	      1.02052795
      1.31000000	     -3.88654997	     -3.63475845	     -7.22089215	     -1.21954592	      0.92672123	     -0.06561331	      0.52504071	     -0.35649243	      1.10549877	     -6.58811373	      5.16308017	      2.82729225	      3.49789382	     -8.97076950	    -12.38030844	    -16.26422473	     11.89350112	      2.41047229	     -3.94510781	     -0.05051646	      0.97493939
      1.32000000	     -4.00756664	     -3.64889711	     -7.03462429	     -1.21918379	      0.92638160	     -0.06700634	      0.67444433	     -0.40790348	      0.90868800	     -6.70458488	      5.25651285	      2.88871522	      4.09405334	     -8.96552261	    -12.11423031	    -17.08310060	     12.08997805	      2.10447833	     -3.90778560	      0.01257965	      0.96023011
      1.33000000	     -4.10967639	     -3.67481381	     -6.84667986	     -1.21872995	      0.92602210	     -0.06853189	      0.80672285	     -0.45895948	      0.70587909	     -6.84155320	      5.37434246	      2.95470076	      4.65195100	     -8.95495275	    -11.87211586	    -17.88003307	     12.30080892	      1.82645568	     -3.88695432	      0.09511053	      0.95846471
      1.34000000	     -4.19114494	     -3.70388082	     -6.66659724	     -1.21817920	      0.92564924	     -0.07018341	      0.92359753	     -0.52015114	      0.50788026	     -7.00314111	      5.51654208	      3.02633082	      5.15050074	     -8.92930295	    -11.66614884	    -18.62124566	     12.51424512	      1.57793723	     -3.88281334	      0.18807612	      0.98379365
      1.35000000	     -4.24159269	     -3.72758437	     -6.49818459	     -1.21752747	      0.92528085	     -0.07196271	      1.01732485	     -0.60228468	      0.31939695	     -7.19308918	      5.69209504	      3.10183525	      5.56507463	     -8.87808597	    -11.51466104	    -19.28330050	     12.72520741	      1.36928131	     -3.90626041	      0.27821865	      1.03890247
      1.36000000	     -4.22915857	     -3.74238938	     -6.36503341	     -1.21671045	      0.92496562	     -0.07382564	      1.05266940	     -0.70999285	      0.13941555	     -7.41059932	      5.91712033	      3.16408223	      5.82750885	     -8.79503218	    -11.43590310	    -19.82681085	     12.93064122	      1.24467275	     -3.97952683	      0.35582177	      1.14865872
      1.37000000	     -4.26013787	     -3.72008831	     -6.21920388	     -1.21590025	      0.92456655	     -0.07586303	      1.18191412	     -0.86342851	     -0.00965420	     -7.71453104	      6.12621672	      3.25392063	      6.09642127	     -8.65769338	    -11.35328510	    -20.27912556	     13.11387282	      1.05574943	     -4.00313052	      0.40454784	      1.21648780
      1.38000000	     -4.18836653	     -3.69661983	     -6.11902636	     -1.21491132	      0.92429115	     -0.07795810	      1.21616350	     -1.03577851	     -0.15112239	     -8.05372402	      6.34017272	      3.28612696	      6.14433586	     -8.50049255	    -11.38062242	    -20.57660366	     13.32459807	      1.02320102	     -4.12493239	      0.44222261	      1.35705592
      1.39000000	     -4.13440968	     -3.63597831	     -6.01899876	     -1.21386487	      0.92396118	     -0.08019888	      1.32466398	     -1.25506835	     -0.29173541	     -8.49954526	      6.64029238	      3.32950468	      6.14021862	     -8.28175628	    -11.36411746	    -20.74202667	     13.53062046	      0.96499406	     -4.21303213	      0.44636840	      1.49559077
      1.40000000	     -4.09401820	     -3.50082255	     -5.91272072	     -1.21277418	      0.92359158	     -0.08257715	      1.49898527	     -1.55984949	     -0.38650287	     -9.03676695	      7.01673769	      3.38507967	      6.10169959	     -7.96736169	    -11.32396457	    -20.80455170	     13.65964875	      0.85971446	     -4.26850881	      0.36473843	      1.60009785
      1.41000000	     -4.02669018	     -3.35206085	     -5.81986964	     -1.21158181	      0.92323625	     -0.08505862	      1.70638189	     -1.88680172	     -0.46679988	     -9.69604030	      7.37080773	      3.40942974	      5.95841030	     -7.62345818	    -11.29781783	    -20.74444631	     13.83388265	      0.80775344	     -4.34115108	      0.27051997	      1.70114022
      1.42000000	     -3.95113445	     -3.14970293	     -5.72257181	     -1.21030783	      0.92285823	     -0.08766321	      1.97162462	     -2.27594732	     -0.50398819	    -10.48213378	      7.77020504	      3.41455410	      5.75669947	     -7.20567026	    -11.24411764	    -20.58942377	     13.98401769	      0.78081309	     -4.40549968	      0.11473664	      1.77478238
      1.43000000	     -3.87190788	     -2.89741020	     -5.61656714	     -1.20897413	      0.92244252	     -0.09040245	      2.30668702	     -2.72211079	     -0.48230055	    -11.40908100	      8.19784991	      3.40245592	      5.52065094	     -6.72101559	    -11.15808755	    -20.37088390	     14.11616865	      0.77287207	     -4.46150858	     -0.09364937	      1.80986156
